<svg width="101" height="83" viewBox="0 0 101 83" fill="none" xmlns="http://www.w3.org/2000/svg">
<path d="M63.2881 9.55424C63.2881 6.17308 64.1299 3.73191 65.8134 2.23073C67.497 0.743575 70.1767 -1.60674e-07 73.8525 0L77.4721 1.58221e-07V7.32352H72.8423C71.9865 7.32352 71.3131 7.44979 70.822 7.70232C70.345 7.96888 70.1065 8.42485 70.1065 9.07022C70.1065 9.74365 70.3029 10.2066 70.6958 10.4592C71.0886 10.7257 71.734 10.859 72.6319 10.859C73.7683 10.859 74.7153 10.7468 75.4729 10.5223C76.2445 10.2978 76.9741 9.90499 77.6615 9.3438C78.363 8.79664 79.1768 8.03202 80.1027 7.04994L83.2594 3.72489C85.6024 1.24163 88.282 6.30737e-07 91.2984 7.62587e-07C94.4551 9.00571e-07 96.8612 0.729547 98.5167 2.18864C100.172 3.66176 101 5.78726 101 8.56515C101 11.9603 100.095 14.3664 98.2852 15.7834C96.4754 17.2145 93.7256 17.93 90.0358 17.93V10.396H92.5822C93.0872 10.396 93.4801 10.2487 93.7607 9.95409C94.0412 9.6735 94.1815 9.28768 94.1815 8.79664C94.1815 8.20739 94.0132 7.77247 93.6765 7.49188C93.3538 7.22531 92.9329 7.09203 92.4138 7.09203C91.8947 7.09203 91.3335 7.23233 90.7302 7.51292C90.127 7.79351 89.4325 8.34769 88.6468 9.17544L84.5431 13.4475C83.7294 14.3033 82.8666 15.089 81.9546 15.8045C81.0567 16.52 80.0045 17.0952 78.7979 17.5301C77.6054 17.9651 76.1463 18.1825 74.4207 18.1825C70.9413 18.1825 68.2125 17.5372 66.2343 16.2464C64.2702 14.9697 63.2881 12.739 63.2881 9.55424Z" fill="white"/>
<path d="M63.6248 20.5395L100.663 20.5395V28.2839L92.056 28.2839C93.2345 28.6908 94.1044 29.3151 94.6656 30.1569C95.2408 30.9987 95.5284 31.9808 95.5284 33.1031C95.5284 35.2918 94.8409 36.8842 93.466 37.8803C92.0911 38.8764 90.2462 39.3744 87.9313 39.3744H63.6248L63.6248 31.7563H87.4473C88.1347 31.7563 88.6959 31.609 89.1308 31.3144C89.5658 31.0338 89.7832 30.5848 89.7832 29.9675C89.7832 29.4484 89.5587 29.0345 89.1098 28.7259C88.6608 28.4312 88.1277 28.2839 87.5104 28.2839H63.6248L63.6248 20.5395Z" fill="white"/>
<path d="M63.2881 51.5172C63.2881 45.2318 66.55 42.0892 73.0738 42.0892H85.7427C88.717 42.0892 91.088 42.924 92.8557 44.5935C94.6375 46.263 95.5284 48.5709 95.5284 51.5172C95.5284 54.4774 94.6375 56.7923 92.8557 58.4619C91.088 60.1314 88.717 60.9662 85.7427 60.9662H73.0738C66.55 60.9662 63.2881 57.8165 63.2881 51.5172ZM69.0964 51.5172C69.0964 52.1485 69.3209 52.5974 69.7698 52.864C70.2328 53.1446 70.815 53.2849 71.5165 53.2849H86.9422C88.7801 53.2849 89.699 52.6957 89.699 51.5172C89.699 50.3387 88.7801 49.7494 86.9422 49.7494H71.5165C70.815 49.7494 70.2328 49.8827 69.7698 50.1493C69.3209 50.4299 69.0964 50.8858 69.0964 51.5172Z" fill="white"/>
<path d="M58.3636 63.7651H95.1917V71.4253H91.8245C92.989 71.8883 93.8939 72.5267 94.5393 73.3404C95.1987 74.1682 95.5284 75.3466 95.5284 76.8759C95.5284 78.9383 94.7778 80.3903 93.2766 81.2321C91.7754 82.0879 89.8113 82.5158 87.3841 82.5158H71.8532C70.2398 82.5158 68.7807 82.2843 67.476 81.8214C66.1852 81.3724 65.161 80.6569 64.4034 79.6748C63.6599 78.7068 63.2881 77.4371 63.2881 75.8658C63.2881 73.8174 64.5227 72.3373 66.9919 71.4253H58.3636L58.3636 63.7651ZM69.1595 73.2141C69.1595 73.9998 69.5524 74.4698 70.338 74.6241C71.1237 74.7925 72.0917 74.8767 73.2422 74.8767H85.5743C86.7388 74.8767 87.7068 74.7925 88.4785 74.6241C89.2641 74.4698 89.657 73.9998 89.657 73.2141C89.657 72.4004 89.2571 71.8953 88.4574 71.6989C87.6717 71.5165 86.7107 71.4253 85.5743 71.4253H73.2422C72.1058 71.4253 71.1377 71.5165 70.338 71.6989C69.5524 71.8953 69.1595 72.4004 69.1595 73.2141Z" fill="white"/>
<path d="M0 82.2349L3.95642 41.3035H17.8504L21.737 82.2349H13.9871L13.4053 75.6301H8.47139L7.95939 82.2349H0ZM9.05322 69.095H12.7769L10.9849 48.2805H10.6125L9.05322 69.095Z" fill="#F5BB4C"/>
<path d="M24.1109 82.2349V47.3502H32.5823V51.234C32.9857 49.8852 33.6994 48.8309 34.7234 48.0712C35.7474 47.3115 37.0352 46.9316 38.5867 46.9316V53.8853C37.9041 53.8853 37.0895 53.9628 36.1431 54.1178C35.1966 54.2574 34.3666 54.4589 33.6528 54.7225C32.9391 54.9706 32.5823 55.2497 32.5823 55.5598V82.2349H24.1109Z" fill="#F5BB4C"/>
<path d="M47.8029 82.607C45.5531 82.607 44.0326 82.1342 43.2413 81.1884C42.4656 80.2271 42.0777 78.762 42.0777 76.7929V55.0481H39.7271V48.6991H42.0777V41.3035H50.1767V48.6991H52.5273V55.0481H50.1767V74.8394C50.1767 75.413 50.2698 75.8161 50.456 76.0487C50.6422 76.2813 50.999 76.3976 51.5266 76.3976C51.8989 76.3976 52.2325 76.3666 52.5273 76.3045V81.9791C52.3411 82.0411 51.7593 82.1574 50.7818 82.328C49.8043 82.514 48.8114 82.607 47.8029 82.607Z" fill="#F5BB4C"/>
<path d="M4.39832 39.2832V9.35782H0V2.24475H16.2043V9.35782H11.806V39.2832H4.39832Z" fill="white"/>
<path d="M18.1404 39.2832V2.24475H25.8848V10.852C26.2917 9.67349 26.916 8.80365 27.7578 8.24246C28.5996 7.66724 29.5817 7.37963 30.7041 7.37963C32.8927 7.37963 34.4851 8.06709 35.4812 9.442C36.4773 10.8169 36.9753 12.6618 36.9753 14.9767V39.2832H29.3572V15.4608C29.3572 14.7733 29.2099 14.2121 28.9153 13.7772C28.6347 13.3423 28.1857 13.1248 27.5684 13.1248C27.0493 13.1248 26.6354 13.3493 26.3268 13.7982C26.0322 14.2472 25.8848 14.7803 25.8848 15.3976V39.2832H18.1404Z" fill="white"/>
<path d="M48.7814 39.6199C46.5366 39.6199 44.7478 39.1991 43.415 38.3573C42.0822 37.5155 41.1281 36.3019 40.5529 34.7166C39.9777 33.1312 39.6901 31.2232 39.6901 28.9924V16.3025C39.6901 13.3703 40.5319 11.1536 42.2154 9.65245C43.899 8.13724 46.2139 7.37963 49.1602 7.37963C55.221 7.37963 58.2514 10.3539 58.2514 16.3025V18.5964C58.2514 21.3743 58.2234 23.2402 58.1672 24.1943H47.2241V30.2972C47.2241 30.8584 47.2591 31.4126 47.3293 31.9597C47.3994 32.4928 47.5538 32.9348 47.7923 33.2855C48.0448 33.6363 48.4446 33.8116 48.9918 33.8116C49.7775 33.8116 50.2685 33.4749 50.4649 32.8015C50.6613 32.114 50.7595 31.2232 50.7595 30.1288V27.0984H58.2514V28.8872C58.2514 31.2442 57.9568 33.2224 57.3675 34.8218C56.7923 36.4071 55.8103 37.6067 54.4213 38.4204C53.0464 39.2201 51.1664 39.6199 48.7814 39.6199ZM47.182 20.4483H50.7595V16.1973C50.7595 15.0609 50.6193 14.2472 50.3387 13.7561C50.0581 13.2511 49.6372 12.9985 49.076 12.9985C48.4727 12.9985 48.0027 13.237 47.666 13.7141C47.3433 14.1911 47.182 15.0188 47.182 16.1973V20.4483Z" fill="white"/>
</svg>
